<?xml version="1.0" standalone="no"?>
<!DOCTYPE svg PUBLIC "-//W3C//DTD SVG 20010904//EN"
 "http://www.w3.org/TR/2001/REC-SVG-20010904/DTD/svg10.dtd">
<svg version="1.0" xmlns="http://www.w3.org/2000/svg"
 width="1224.000000pt" height="1280.000000pt" viewBox="0 0 1224.000000 1280.000000"
 preserveAspectRatio="xMidYMid meet">
<metadata>
Created by potrace 1.15, written by Peter Selinger 2001-2017
</metadata>
<g transform="translate(0.000000,1280.000000) scale(0.100000,-0.100000)"
fill="#ff9800" stroke="none">
<path d="M1845 12794 c-16 -2 -73 -9 -125 -15 -443 -51 -916 -304 -1221 -652
-278 -317 -454 -730 -488 -1147 -12 -151 -3 -8971 10 -9139 51 -687 443 -1287
1051 -1610 178 -95 388 -165 618 -208 90 -17 334 -18 4365 -21 3077 -2 4301 0
4380 8 704 71 1292 477 1601 1105 107 217 168 436 194 690 8 79 10 1378 8
4670 l-4 4560 -21 110 c-50 250 -133 476 -244 664 -332 562 -894 919 -1545
981 -100 9 -8498 13 -8579 4z m7870 -1404 c38 -38 67 -70 64 -70 -2 0 -36 32
-74 70 -38 39 -67 70 -64 70 2 0 36 -31 74 -70z m96 -107 c13 -16 12 -17 -3
-4 -17 13 -22 21 -14 21 2 0 10 -8 17 -17z m117 -177 c89 -154 151 -344 172
-525 6 -55 10 -1585 10 -4261 0 -4546 4 -4240 -55 -4445 -28 -100 -112 -277
-174 -371 -205 -310 -548 -531 -921 -595 -113 -19 -172 -19 -2780 -16 l-2665
2 -90 22 c-246 59 -443 159 -620 312 -224 194 -375 452 -452 771 -17 71 -18
255 -18 3875 -1 2090 2 3717 5 3615 10 -265 13 -298 17 -269 4 29 17 34 148
59 33 6 78 15 100 20 53 11 127 26 200 40 33 6 78 15 100 20 22 5 67 14 100
20 33 6 78 15 100 20 22 5 67 14 100 20 33 6 76 15 95 20 19 5 62 14 95 20 33
6 78 16 100 20 22 5 57 12 77 15 l38 6 3 212 c1 117 3 -171 5 -639 1 -558 6
-871 13 -910 14 -75 75 -206 122 -262 80 -95 165 -151 293 -194 l69 -23 2130
0 2130 0 80 27 c197 67 336 217 393 421 15 56 17 140 17 932 0 816 -1 874 -18
930 -63 204 -209 352 -417 422 -52 17 -138 18 -1805 23 l-1750 5 1757 0 c966
0 1751 3 1745 7 -6 3 7 9 29 13 21 3 62 11 89 17 109 22 132 27 190 38 33 6
78 15 100 20 22 5 67 14 100 20 33 6 78 15 100 20 22 5 67 14 100 20 33 6 78
15 100 20 22 5 67 14 100 20 33 6 78 15 100 20 22 5 67 14 100 20 33 6 78 15
100 20 22 5 67 14 100 20 33 6 76 15 95 20 19 5 62 14 95 20 33 7 82 17 108
23 40 9 50 9 57 -3 19 -29 11 11 -21 104 -32 97 -94 220 -160 320 -23 35 -28
47 -12 27 15 -18 52 -74 81 -125z m-5281 -662 c-3 -3 -12 -4 -19 -1 -8 3 -5 6
6 6 11 1 17 -2 13 -5z m-807 -137 c0 -2 -10 -12 -22 -23 l-23 -19 19 23 c18
21 26 27 26 19z m-50 -50 c0 -2 -12 -14 -27 -28 l-28 -24 24 28 c23 25 31 32
31 24z m-129 -194 c-12 -20 -14 -14 -5 12 4 9 9 14 11 11 3 -2 0 -13 -6 -23z
m-24 -75 c-3 -8 -6 -5 -6 6 -1 11 2 17 5 13 3 -3 4 -12 1 -19z m-10 -40 c-3
-8 -6 -5 -6 6 -1 11 2 17 5 13 3 -3 4 -12 1 -19z"/>
<path d="M10051 10744 c0 -11 3 -14 6 -6 3 7 2 16 -1 19 -3 4 -6 -2 -5 -13z"/>
<path d="M8425 10430 c27 -12 43 -12 25 0 -8 5 -22 9 -30 9 -10 0 -8 -3 5 -9z"/>
<path d="M4327 6895 c-197 -54 -341 -222 -354 -413 -7 -95 8 -164 51 -247 150
-288 576 -344 810 -108 100 101 143 216 133 356 -13 188 -154 352 -356 411
-66 19 -215 20 -284 1z"/>
<path d="M8133 6895 c-95 -21 -194 -77 -262 -150 -176 -188 -172 -445 8 -626
106 -106 212 -149 366 -149 207 0 374 100 461 275 63 127 59 268 -10 400 -64
123 -196 219 -341 250 -85 18 -140 18 -222 0z"/>
<path d="M5618 6869 c-116 -27 -264 -144 -317 -251 -125 -249 -6 -534 267
-639 71 -28 220 -37 301 -19 247 55 417 285 381 517 -28 184 -185 350 -370
392 -54 13 -210 13 -262 0z"/>
<path d="M6856 6869 c-79 -19 -170 -71 -234 -135 -212 -212 -174 -539 82 -706
146 -95 350 -107 514 -31 262 122 353 432 196 669 -60 90 -163 162 -283 198
-60 18 -209 20 -275 5z"/>
<path d="M4328 5785 c-168 -42 -303 -166 -349 -317 -32 -104 -25 -229 19 -321
57 -123 174 -221 314 -264 85 -26 227 -21 315 10 199 69 332 245 333 437 0
194 -126 365 -325 439 -78 29 -225 37 -307 16z"/>
<path d="M8102 5770 c-98 -26 -165 -64 -233 -131 -104 -104 -155 -253 -130
-387 26 -140 118 -269 239 -335 61 -33 188 -67 252 -67 249 0 463 172 503 404
32 190 -78 391 -265 480 -123 58 -237 70 -366 36z"/>
<path d="M5668 5758 c-133 -16 -246 -78 -330 -183 -64 -78 -90 -149 -96 -256
-10 -182 81 -339 244 -426 262 -140 584 -42 712 216 36 73 37 78 37 186 0 109
-1 113 -38 189 -97 195 -301 301 -529 274z"/>
<path d="M6904 5760 c-274 -41 -468 -283 -426 -531 55 -322 429 -495 739 -343
70 34 171 128 206 192 124 228 37 500 -199 624 -100 53 -217 74 -320 58z"/>
<path d="M4250 4627 c-142 -48 -240 -132 -298 -256 -83 -173 -43 -370 102
-509 101 -97 213 -142 356 -142 364 0 607 344 462 655 -55 117 -171 215 -300
255 -92 28 -235 27 -322 -3z"/>
<path d="M8051 4625 c-140 -39 -254 -134 -317 -260 -33 -67 -38 -88 -42 -165
-4 -71 0 -103 17 -159 40 -130 153 -246 298 -302 80 -31 237 -38 319 -14 131
38 225 104 293 206 52 78 72 144 72 242 1 194 -121 362 -318 437 -76 30 -242
37 -322 15z"/>
<path d="M5551 4604 c-230 -62 -392 -298 -354 -518 56 -329 430 -502 742 -344
177 90 285 291 254 473 -41 238 -249 406 -500 404 -48 0 -112 -7 -142 -15z"/>
<path d="M6791 4604 c-76 -20 -146 -60 -213 -122 -186 -173 -199 -449 -28
-634 190 -208 525 -221 732 -30 273 252 151 691 -219 787 -71 19 -201 18 -272
-1z"/>
<path d="M4328 3550 c-78 -12 -171 -52 -235 -101 -216 -162 -245 -468 -65
-662 93 -100 212 -155 352 -164 448 -28 704 463 405 776 -112 118 -291 177
-457 151z"/>
<path d="M8186 3524 c-153 -37 -292 -158 -343 -298 -90 -250 51 -520 317 -603
36 -11 89 -17 155 -17 66 0 119 6 155 17 231 72 380 295 343 513 -48 278 -338
458 -627 388z"/>
<path d="M5600 3513 c-99 -15 -221 -82 -290 -160 -187 -207 -146 -521 86 -676
100 -65 178 -89 294 -90 152 0 272 48 375 151 178 180 177 452 -4 633 -114
114 -293 169 -461 142z"/>
<path d="M6825 3510 c-105 -21 -199 -75 -277 -157 -129 -139 -154 -335 -65
-508 129 -253 484 -338 733 -177 252 164 288 499 77 707 -117 116 -300 168
-468 135z"/>
</g>
</svg>
